<svg xmlns="http://www.w3.org/2000/svg" xmlns:xlink="http://www.w3.org/1999/xlink" viewBox="0 0 932.25 932.41"><defs><style>.cls-1{fill:none;}.cls-2{clip-path:url(#clip-path);}.cls-3{fill:#fff;}.cls-4{fill:#3a377e;}</style><clipPath id="clip-path"><rect class="cls-1" x="-48.61" y="-2061.88" width="3537.59" height="1861"/></clipPath></defs><title>30%OFF</title><g id="contenido"><g class="cls-2"><image width="1920" height="1280" transform="translate(-48.98 -2077.64) scale(1.84)" xlink:href="../Ima%CC%81genes/child-5489290_1920.jpg"/></g><circle class="cls-3" cx="466.2" cy="466.2" r="466.2"/><path class="cls-4" d="M235.72,596.78v15.39H197.2v15.94h34.64v14.72H197.2v16h39.73v15.27h-57V596.78Z"/><path class="cls-4" d="M306.44,596.78h17.27v77.37H306.44l-36.86-48.48v48.48H252.32V596.78h16.16l38,49.81Z"/><path class="cls-4" d="M404.72,611.72v62.43H387.46V611.72H365.54V596.78h61.1v14.94Z"/><path class="cls-4" d="M502.24,663.47q-11.75,11.46-28.89,11.45t-28.89-11.45Q432.73,652,432.73,635t11.73-28.5Q456.19,595,473.35,595t28.89,11.46Q514,617.92,514,635T502.24,663.47ZM496.37,635a25.29,25.29,0,0,0-6.64-17.65,21.88,21.88,0,0,0-32.65,0,26.71,26.71,0,0,0,0,35.25,22,22,0,0,0,32.65,0A25.1,25.1,0,0,0,496.37,635Z"/><path class="cls-4" d="M587.68,606.91q11.07,10.13,11.07,28.17T588,663.63q-10.8,10.53-32.93,10.52H528.58V596.78h27.34Q576.61,596.78,587.68,606.91ZM575,652.9q6.36-6,6.36-17.38T575,618q-6.37-6.15-19.54-6.15h-9.63v47h11Q568.65,658.88,575,652.9Z"/><path class="cls-4" d="M678.77,663.47Q667,674.93,649.89,674.92T621,663.47Q609.27,652,609.26,635T621,606.47Q632.73,595,649.89,595t28.88,11.46q11.75,11.44,11.74,28.5T678.77,663.47ZM672.91,635a25.34,25.34,0,0,0-6.64-17.65,21.88,21.88,0,0,0-32.65,0,26.68,26.68,0,0,0,0,35.25,22,22,0,0,0,32.65,0A25.15,25.15,0,0,0,672.91,635Z"/><path class="cls-4" d="M722.55,612.22a6.69,6.69,0,0,0-2.49,5.43,6.1,6.1,0,0,0,3,5.36q3,2,14.06,4.71t17.1,8.13q6.09,5.43,6.09,15.83a20.88,20.88,0,0,1-7.81,16.88Q744.74,675,732,675q-18.37,0-33.09-13.62l10.29-12.62q12.51,11,23.13,11,4.77,0,7.47-2a6.57,6.57,0,0,0,2.72-5.53,6.46,6.46,0,0,0-2.88-5.54q-2.88-2-11.4-4.15-13.5-3.21-19.76-8.35T702.24,618q0-11,7.91-17t19.76-6a47.52,47.52,0,0,1,15.49,2.66,41.61,41.61,0,0,1,13.51,7.52l-8.75,12.62q-10.06-7.63-20.8-7.64A10.44,10.44,0,0,0,722.55,612.22Z"/><path class="cls-4" d="M175.61,770.15V699h15.87v57H221.8v14.14Z"/><path class="cls-4" d="M286.19,760.33q-10.79,10.53-26.55,10.53t-26.55-10.53q-10.78-10.53-10.79-26.19t10.79-26.2q10.78-10.53,26.55-10.53t26.55,10.53Q297,718.47,297,734.14T286.19,760.33Zm-5.39-26.14A23.33,23.33,0,0,0,274.7,718a20.14,20.14,0,0,0-30,0,24.56,24.56,0,0,0,0,32.4,20.22,20.22,0,0,0,30,0A23.11,23.11,0,0,0,280.8,734.19Z"/><path class="cls-4" d="M321.34,713.23a6.14,6.14,0,0,0-2.29,5,5.62,5.62,0,0,0,2.8,4.93q2.79,1.83,12.92,4.32T350.48,735q5.59,5,5.6,14.55A19.19,19.19,0,0,1,348.91,765q-7.17,6-18.87,6-16.89,0-30.42-12.51l9.46-11.6q11.49,10.08,21.26,10.08a11.13,11.13,0,0,0,6.87-1.89A6,6,0,0,0,339.7,750a5.92,5.92,0,0,0-2.65-5.09c-1.76-1.25-5.25-2.53-10.47-3.81q-12.42-3-18.16-7.69t-5.75-14.85q0-10.12,7.27-15.61t18.16-5.5a43.92,43.92,0,0,1,14.25,2.44,38.37,38.37,0,0,1,12.41,6.92l-8,11.6q-9.25-7-19.13-7A9.57,9.57,0,0,0,321.34,713.23Z"/><path class="cls-4" d="M435.27,705.4q7.49,6.36,7.48,19.53t-7.68,19.28q-7.68,6.1-23.45,6.1h-9.46v19.84H386.29V699h25.13Q427.8,699,435.27,705.4Zm-11.64,28q2.83-3.2,2.84-9.35t-3.71-8.75q-3.7-2.6-11.54-2.6h-9.06v23.91h10.68Q420.78,736.58,423.63,733.37Z"/><path class="cls-4" d="M450.07,770.15V699H466v57h30.31v14.14Z"/><path class="cls-4" d="M553.43,770.15l-6.61-15.36H517l-6.61,15.36H493.51L524.24,699H539.6l30.72,71.11ZM532,720.2l-9,20.65h17.8Z"/><path class="cls-4" d="M623.22,699h15.87v71.11H623.22l-33.88-44.56v44.56H573.47V699h14.86l34.89,45.78Z"/><path class="cls-4" d="M702.77,699v14.14h-35.4v14.65h31.84v13.53H667.37v14.75h36.52v14H651.5V699Z"/><path class="cls-4" d="M729.58,713.23a6.14,6.14,0,0,0-2.29,5,5.62,5.62,0,0,0,2.8,4.93q2.79,1.83,12.92,4.32T758.72,735q5.6,5,5.6,14.55A19.19,19.19,0,0,1,757.15,765q-7.17,6-18.87,6-16.89,0-30.42-12.51l9.46-11.6q11.49,10.08,21.26,10.08a11.13,11.13,0,0,0,6.87-1.89,6,6,0,0,0,2.49-5.08,5.94,5.94,0,0,0-2.64-5.09c-1.77-1.25-5.26-2.53-10.48-3.81q-12.42-3-18.16-7.69t-5.75-14.85q0-10.12,7.27-15.61t18.16-5.5a43.92,43.92,0,0,1,14.25,2.44A38.37,38.37,0,0,1,763,706.77l-8,11.6q-9.26-7-19.13-7A9.57,9.57,0,0,0,729.58,713.23Z"/><path class="cls-4" d="M205.23,189.69V144.06H352.05v37.05L303,237q28.81,4.81,44.59,24.19A68.84,68.84,0,0,1,363.37,306q0,37.74-25.56,59.17t-65.34,21.44q-39.8,0-80.61-28.13l21.95-42.53q34,24,60.71,24,16.13,0,26.59-7.89t10.46-22.81q0-14.93-12-23.67t-33.28-8.75q-11.31,0-31.9,6.52V243.88l46-54.19Z"/><path class="cls-4" d="M483.42,386.58q-49.74,0-74.43-33.79t-24.7-90.21q0-56.43,24.7-90.22t74.43-33.79q49.74,0,74.44,33.79t24.7,90.22q0,56.43-24.7,90.21T483.42,386.58Zm-35.33-181.8q-11.31,22-11.32,58t11.32,58q11.32,22,35.33,21.95t35.34-21.95q11.31-21.95,11.31-58t-11.31-58q-11.33-21.94-35.34-22T448.09,204.78Z"/><path class="cls-4" d="M320.55,538q-23.46,22.9-57.75,22.9T205,538q-23.46-22.9-23.45-57T205,424q23.46-22.9,57.76-22.91T320.55,424Q344,446.91,344,481T320.55,538ZM308.82,481.1q0-20.69-13.28-35.29t-32.63-14.6q-19.37,0-32.64,14.6T217,481.1q0,20.7,13.28,35.19t32.64,14.49q19.35,0,32.63-14.49T308.82,481.1Z"/><path class="cls-4" d="M468.36,404.65V435h-71.7v33.41h68.15v30.31H396.66v60.63H362.14V404.65Z"/><path class="cls-4" d="M592.71,404.65V435H521v33.41h68.15v30.31H521v60.63H486.5V404.65Z"/><path class="cls-4" d="M604.27,370.33q-9.78-10.17-9.78-27.77a42.88,42.88,0,0,1,4.5-20.14,32.08,32.08,0,0,1,12.42-13.2,35.41,35.41,0,0,1,18.09-4.59q15.63,0,25.42,10.26t9.78,27.67q0,17.61-9.78,27.77T629.5,380.5Q614,380.5,604.27,370.33Zm106.18-63.95h28.16L645.14,443.27H617ZM637.9,357.23q3.14-4.69,3.13-14.67T637.9,327.9a9.64,9.64,0,0,0-8.4-4.7c-3.4,0-6.16,1.6-8.32,4.79S618,336.05,618,342.56s1.07,11.38,3.22,14.57,4.92,4.79,8.32,4.79A9.63,9.63,0,0,0,637.9,357.23Zm62.87,77.63q-9.67-10.16-9.67-27.76,0-17.42,9.77-27.68t25.23-10.26q15.64,0,25.42,10.26t9.78,27.68q0,17.59-9.78,27.76T726.1,445Q710.46,445,700.77,434.86Zm33.74-13.1q3.12-4.69,3.13-14.66t-3.13-14.67a9.89,9.89,0,0,0-16.82,0q-3.13,4.69-3.13,14.67t3.13,14.66a9.87,9.87,0,0,0,16.82,0Z"/></g></svg>