<svg xmlns="http://www.w3.org/2000/svg" viewBox="0 0 349.89 268.97"><defs><style>.cls-1{fill:#3a377e;}</style></defs><title>Icono relación de dependencia</title><g id="contenido"><path class="cls-1" d="M349.87,243.87a.76.76,0,0,0,0-.15,3,3,0,0,0-.09-.6s0,0,0-.06a4.44,4.44,0,0,0-.15-.52l-.05-.14c-.06-.15-.12-.3-.19-.45s0,0,0-.08L321.92,187.8V9.92A9.93,9.93,0,0,0,312,0H37.89A9.93,9.93,0,0,0,28,9.92V187.8L.55,241.87l0,.08a4.32,4.32,0,0,0-.19.45.78.78,0,0,0,0,.14,5.08,5.08,0,0,0-.15.52l0,.06a5.4,5.4,0,0,0-.09.6v.15c0,.11,0,.21,0,.32v13A11.79,11.79,0,0,0,11.78,269H338.1a11.8,11.8,0,0,0,11.79-11.78v-13C349.89,244.08,349.88,244,349.87,243.87ZM38.22,10.25H311.67V183.9H38.22Zm-2,183.9H313.65l22.77,44.91H223.81l-5.65-20.49a9.69,9.69,0,0,0-9.31-7.09H141a9.68,9.68,0,0,0-9.3,7.09l-5.65,20.49H13.47Zm176.94,44.91H136.71l4.78-17.33H208.4Zm126.46,18.13a1.53,1.53,0,0,1-1.54,1.53H11.78a1.53,1.53,0,0,1-1.53-1.53v-7.88H339.64Z"/><path class="cls-1" d="M295.61,105.62a5.12,5.12,0,0,0-5.12,5.12v52H59.4v-52a5.13,5.13,0,0,0-10.25,0v54.19a8.05,8.05,0,0,0,8,8H292.7a8.05,8.05,0,0,0,8-8V110.74A5.13,5.13,0,0,0,295.61,105.62Z"/><path class="cls-1" d="M292.7,21.19H57.19a8,8,0,0,0-8,8V83.41a5.13,5.13,0,1,0,10.25,0v-52H290.49v52a5.13,5.13,0,1,0,10.25,0V29.22A8,8,0,0,0,292.7,21.19Z"/></g></svg>