<svg xmlns="http://www.w3.org/2000/svg" viewBox="0 0 304.01 289.44"><defs><style>.cls-1{fill:#3a377e;}</style></defs><title>Icono grupo familiar</title><g id="contenido"><path class="cls-1" d="M232.94,43.15l.4,0a5.06,5.06,0,0,0,.68-.05,11,11,0,0,1,10.79,11,4.93,4.93,0,0,0,9.85,0,20.89,20.89,0,0,0-16.39-20.37V29a4.93,4.93,0,1,0-9.85,0V34a20.85,20.85,0,0,0,5.38,41,11,11,0,1,1-11,11A4.93,4.93,0,1,0,213,86a20.88,20.88,0,0,0,15.47,20.14v5.4a4.93,4.93,0,0,0,9.85,0v-5.17a20.85,20.85,0,0,0-4.47-41.22,11,11,0,0,1-.86-22Z"/><path class="cls-1" d="M234.09,0c-30.3,0-56.16,19.77-65.85,46.25H46a5.14,5.14,0,0,0-4.92,5.14L39.9,224.18H5.06A4.85,4.85,0,0,0,0,228.87V250.8a38.68,38.68,0,0,0,36.94,38.53v.11H189v-.14c1.24,0,1.74.14,2.52.14h.11a38.69,38.69,0,0,0,38.62-38.69V139.89c1.24.07,2.54.11,3.81.11a70,70,0,0,0,0-140ZM38.81,279.59h0A29,29,0,0,1,9.85,250.75V234H152.69v16.65a38.66,38.66,0,0,0,11.4,27.38c.52.51,1.16.91,1.7,1.53Zm181.6-28.84a28.83,28.83,0,0,1-28.78,28.84h-.09a29.05,29.05,0,0,1-29-28.91V228.87a4.56,4.56,0,0,0-1.33-3.37,4.51,4.51,0,0,0-3.37-1.32H49.75L50.88,56.1H165.51a73.09,73.09,0,0,0-1.35,13.68A69.38,69.38,0,0,0,170.1,98H123.58a4.93,4.93,0,1,0,0,9.85h51.87a69.51,69.51,0,0,0,45,30.85Zm13.68-120.6a60.08,60.08,0,1,1,60.08-60.08A60.08,60.08,0,0,1,234.09,130.15Z"/><path class="cls-1" d="M92,130.74A15.27,15.27,0,1,0,107.73,146,15.54,15.54,0,0,0,92,130.74Zm0,20.68A5.44,5.44,0,1,1,97.88,146,5.68,5.68,0,0,1,92,151.42Z"/><path class="cls-1" d="M118.65,146a4.93,4.93,0,0,0,4.93,4.92h65.66a4.93,4.93,0,1,0,0-9.85H123.58A4.93,4.93,0,0,0,118.65,146Z"/><path class="cls-1" d="M92,87.93a15.27,15.27,0,1,0,15.77,15.26A15.54,15.54,0,0,0,92,87.93Zm0,20.68a5.44,5.44,0,1,1,5.92-5.42A5.69,5.69,0,0,1,92,108.61Z"/><path class="cls-1" d="M92,173.55a15.27,15.27,0,1,0,15.77,15.27A15.54,15.54,0,0,0,92,173.55Zm0,20.68a5.43,5.43,0,1,1,5.92-5.41A5.68,5.68,0,0,1,92,194.23Z"/><path class="cls-1" d="M189.24,184.16H123.58a4.93,4.93,0,1,0,0,9.85h65.66a4.93,4.93,0,1,0,0-9.85Z"/></g></svg>