<svg xmlns="http://www.w3.org/2000/svg" viewBox="0 0 295.38 265.84"><defs><style>.cls-1{fill:#3a377e;}</style></defs><title>Icono monotributista</title><g id="contenido"><path class="cls-1" d="M280.61,44.31h-64V24.61A24.65,24.65,0,0,0,192,0H103.38A24.64,24.64,0,0,0,78.77,24.61v19.7h-64A14.77,14.77,0,0,0,0,59.08V168.66a14.84,14.84,0,0,0,9.85,13.9v68.51a14.77,14.77,0,0,0,14.76,14.77H270.76a14.77,14.77,0,0,0,14.77-14.77V182.56a14.84,14.84,0,0,0,9.85-13.9V59.08A14.77,14.77,0,0,0,280.61,44.31Zm-192-19.7A14.77,14.77,0,0,1,103.38,9.85H192a14.76,14.76,0,0,1,14.77,14.76v19.7h-9.84V24.61A4.93,4.93,0,0,0,192,19.69H103.38a4.92,4.92,0,0,0-4.92,4.92v19.7H88.61Zm98.46,19.7H108.3V29.54h78.77ZM134.12,189.25H128L14.08,173.54a4.91,4.91,0,0,1-4.23-4.88V59.08a4.93,4.93,0,0,1,4.92-4.93H280.61a4.93,4.93,0,0,1,4.92,4.93V168.66a4.93,4.93,0,0,1-4.23,4.88l-1.37.19L167.38,189.25h-2.46v9.94h2.46l108.3-14.94v66.82a4.92,4.92,0,0,1-4.92,4.92H24.61a4.92,4.92,0,0,1-4.92-4.92V184.25L128,199.19h6.55Z"/><path class="cls-1" d="M157.61,213.89H143.15a8.86,8.86,0,0,1-8.86-8.85v-29.2a8.87,8.87,0,0,1,8.86-8.86h14.46a8.87,8.87,0,0,1,8.85,8.86V205A8.86,8.86,0,0,1,157.61,213.89ZM143.15,175a.87.87,0,0,0-.86.86V205a.86.86,0,0,0,.86.85h14.46a.85.85,0,0,0,.85-.85v-29.2a.86.86,0,0,0-.85-.86Z"/></g></svg>