<svg xmlns="http://www.w3.org/2000/svg" viewBox="0 0 261.32 261.32"><defs><style>.cls-1{fill:#3a377e;}</style></defs><title>Icono autónomos</title><g id="contenido"><path class="cls-1" d="M130.66,261.32A130.66,130.66,0,1,1,261.32,130.66,130.8,130.8,0,0,1,130.66,261.32Zm0-249.32A118.66,118.66,0,1,0,249.32,130.66,118.79,118.79,0,0,0,130.66,12Z"/><path class="cls-1" d="M188.18,139.16h-115a8.5,8.5,0,0,1,0-17h115a8.5,8.5,0,0,1,0,17Z"/><path class="cls-1" d="M130.66,196.68a8.5,8.5,0,0,1-8.5-8.5v-115a8.5,8.5,0,0,1,17,0v115A8.51,8.51,0,0,1,130.66,196.68Z"/></g></svg>